<svg xmlns="http://www.w3.org/2000/svg" version="1.1" xmlns:xlink="http://www.w3.org/1999/xlink" xmlns:svgjs="http://svgjs.com/svgjs" width="2000" height="1080" preserveAspectRatio="none" viewBox="0 0 2000 1080"><g mask="url(&quot;#SvgjsMask1186&quot;)" fill="none"><rect width="2000" height="1080" x="0" y="0" fill="rgba(12, 50, 4, 1)"></rect><path d="M 0,186 C 100,206.6 300,282.2 500,289 C 700,295.8 800,213.2 1000,220 C 1200,226.8 1300,317.4 1500,323 C 1700,328.6 1900,263 2000,248L2000 1080L0 1080z" fill="rgba(0, 82, 0, 1)"></path><path d="M 0,543 C 80,630 240,973 400,978 C 560,983 640,566.8 800,568 C 960,569.2 1040,984.4 1200,984 C 1360,983.6 1440,583.4 1600,566 C 1760,548.6 1920,830.8 2000,897L2000 1080L0 1080z" fill="rgba(0, 100, 15, 1)"></path></g><defs><mask id="SvgjsMask1186"><rect width="2000" height="1080" fill="#ffffff"></rect></mask></defs></svg>