<svg xmlns="http://www.w3.org/2000/svg" version="1.1" xmlns:xlink="http://www.w3.org/1999/xlink" xmlns:svgjs="http://svgjs.com/svgjs" width="2560" height="1440" preserveAspectRatio="none" viewBox="0 0 2560 1440"><g mask="url(&quot;#SvgjsMask1194&quot;)" fill="none"><rect width="2560" height="1440" x="0" y="0" fill="rgba(12, 50, 4, 1)"></rect><path d="M 0,39 C 128,148.6 384,549.6 640,587 C 896,624.4 1024,212.2 1280,226 C 1536,239.8 1664,631.6 1920,656 C 2176,680.4 2432,409.6 2560,348L2560 1440L0 1440z" fill="rgba(0, 82, 0, 1)"></path><path d="M 0,902 C 102.4,986.6 307.2,1337.6 512,1325 C 716.8,1312.4 819.2,847.4 1024,839 C 1228.8,830.6 1331.2,1276.4 1536,1283 C 1740.8,1289.6 1843.2,849.6 2048,872 C 2252.8,894.4 2457.6,1290.4 2560,1395L2560 1440L0 1440z" fill="rgba(0, 100, 15, 1)"></path></g><defs><mask id="SvgjsMask1194"><rect width="2560" height="1440" fill="#ffffff"></rect></mask></defs></svg>